PathFileType	3	(X/Y/Z)	D:\Vicon Database\Healthy Subjects\S0040\Jan. 30, 2020\Force Plate Walk 5.trc
DataRate	CameraRate	NumFrames	NumMarkers	Units	OrigDataRate	OrigDataStartFrame	OrigNumFrames
100.0	100.0	4	53	mm	100.0	268	326	
Frame#	Time	right_foot_cluster2			right_foot_cluster3			sternum_cluster1			sternum_cluster2			sternum_cluster3			left_asis			right_asis			left_psis			right_psis			sacrum_cluster1			sacrum_cluster2			sacrum_cluster3			left_lat_femoral_epicondyle			left_anterior_thigh15			left_anterior_thigh25			left_anterior_thigh50			left_lateral_thigh25			left_lateral_thigh50			left_thigh_cluster1			left_thigh_cluster2			left_thigh_cluster3			left_fibular_head			left_tibial_tuberosity			left_anterior_shank30			left_lateral_malleolus			left_shank_cluster1			left_shank_cluster2			left_shank_cluster3			left_heel			left_metatarsal2			left_foot_cluster1			left_foot_cluster2			left_foot_cluster3			right_lat_femoral_epicondyle			right_anterior_thigh15			right_anterior_thigh25			right_anterior_thigh50			right_lateral_thigh25			right_lateral_thigh50			right_thigh_cluster1			right_thigh_cluster2			right_thigh_cluster3			right_fibular_head			right_tibial_tuberosity			right_lateral_distal_shank			right_anterior_shank30			right_lateral_malleolus			right_shank_cluster1			right_shank_cluster2			right_shank_cluster3			right_heel			right_metatarsal2			right_foot_cluster1			
		X1	Y1	Z1	X2	Y2	Z2	X3	Y3	Z3	X4	Y4	Z4	X5	Y5	Z5	X6	Y6	Z6	X7	Y7	Z7	X8	Y8	Z8	X9	Y9	Z9	X10	Y10	Z10	X11	Y11	Z11	X12	Y12	Z12	X13	Y13	Z13	X14	Y14	Z14	X15	Y15	Z15	X16	Y16	Z16	X17	Y17	Z17	X18	Y18	Z18	X19	Y19	Z19	X20	Y20	Z20	X21	Y21	Z21	X22	Y22	Z22	X23	Y23	Z23	X24	Y24	Z24	X25	Y25	Z25	X26	Y26	Z26	X27	Y27	Z27	X28	Y28	Z28	X29	Y29	Z29	X30	Y30	Z30	X31	Y31	Z31	X32	Y32	Z32	X33	Y33	Z33	X34	Y34	Z34	X35	Y35	Z35	X36	Y36	Z36	X37	Y37	Z37	X38	Y38	Z38	X39	Y39	Z39	X40	Y40	Z40	X41	Y41	Z41	X42	Y42	Z42	X43	Y43	Z43	X44	Y44	Z44	X45	Y45	Z45	X46	Y46	Z46	X47	Y47	Z47	X48	Y48	Z48	X49	Y49	Z49	X50	Y50	Z50	X51	Y51	Z51	X52	Y52	Z52	X53	Y53	Z53	
268	2.67	3597.3857	107.59653	-185.69922	3597.7388	109.04227	-223.04219	3179.177	1433.0499	-117.16087	3168.4229	1404.3605	-108.18581	3168.3401	1406.6429	-146.18552	3200.4333	1055.7797	0.16771877	3202.0466	1049.4851	-248.52669	3368.0889	1068.3701	-43.438492	3368.8281	1069.0111	-161.99248				3383.2498	1100.7015	-122.80186	3386.2202	1095.8341	-83.224747	3112.0605	547.9856	13.252321	3053.1125	652.47516	-43.516079	3064.8833	736.82043	-22.264769	3111.2053	864.38806	0.61867422	3162.262	690.61774	41.447639	3204.7683	832.47784	72.347481	3192.5144	786.63434	77.097115	3185.8499	757.19257	73.140205	3154.6599	776.97626	75.780807	3092.7625	470.73792	15.883424	3048.4629	467.79526	-47.417118	3069.7632	213.95689	-57.409561	3119.7795	102.05615	-21.959297	3052.1064	410.98389	-76.358414	3045.6548	383.65872	-69.070129	3066.3062	384.34863	-101.74416	3194.915	66.273178	-53.29327	2977.1384	75.886658	-65.388931	3038.8643	121.69193	-57.368519	3013.8445	106.60525	-47.828655	3011.5798	111.4249	-86.119247	3337.5103	511.50739	-271.64508	3223.9709	571.34308	-226.47624	3193.6345	653.70313	-219.10786	3177.6863	787.82758	-219.74965	3303.0068	665.33459	-289.83057	3282.6599	810.02679	-307.16739	3298.5103	762.60022	-313.51312	3290.6973	734.9054	-311.87897	3328.6638	738.15253	-304.94168	3384.2893	463.7399	-274.45712	3343.7192	417.41214	-237.07588	3584.0088	284.63025	-247.67496	3537.7322	256.87396	-209.17931	3656.1763	209.77744	-231.98654	3393.196	370.80817	-177.53003	3416.2241	356.06912	-169.36011	3404.6365	341.19394	-201.74535	3718.4277	257.9212	-189.01721	3611.2444	66.58255	-191.42345	3595.176	135.57654	-196.25726
269	2.68	3582.9998	111.01292	-187.22755	3583.2827	111.91079	-223.95407	3167.2549	1434.0535	-117.23508	3155.3774	1405.821	-107.86974	3155.4814	1408.3064	-145.85042	3186.4121	1057.4691	0.86864185	3189.1086	1050.4935	-248.02061	3354.4128	1069.844	-42.793659	3355.6228	1069.6384	-161.32825				3369.4426	1101.4456	-122.30156	3372.6147	1097.0442	-82.658531	3104.7205	547.52521	14.358876	3043.4219	651.79315	-42.139847	3054.1506	736.60468	-21.634071	3098.6355	864.67511	1.4002333	3151.8906	691.67468	42.40139	3192.3433	834.06085	73.297913	3180.8516	787.98279	77.994095	3175.04	758.94843	73.423042	3142.7029	778.28418	76.066353	3086.6448	470.07306	17.327429	3039.9316	466.64496	-45.391705	3067.2275	212.9399	-56.493027	3119.561	101.95177	-21.845831	3045.894	409.55103	-74.77063	3040.0913	382.04227	-67.753403	3060.5833	383.26361	-100.49954	3195.0857	66.501129	-53.289753	2976.9111	75.272087	-65.163574	3038.5713	121.25952	-57.443703	3013.6584	105.92754	-47.468956	3011.3345	110.83691	-85.72538	3311.0701	509.69547	-273.21484	3199.2095	572.35748	-228.88835	3171.6096	655.31366	-221.1915	3160.2527	789.88806	-219.97588	3281.0505	664.15179	-291.12976	3264.7607	809.5025	-306.48306	3279.9688	761.99469	-313.59402	3271.2385	734.45996	-312.56921	3309.2114	736.60724	-305.27286	3357.8328	463.01358	-276.4675	3317.8027	416.40161	-238.81969	3561.5378	290.08301	-249.02507	3515.5645	260.12201	-210.40826	3634.4585	216.84166	-232.68021	3367.5769	369.57309	-178.47472	3391.1836	355.63919	-170.37759	3381.4268	340.40741	-204.18004	3691.54	270.63501	-189.5636	3602.3706	69.847458	-192.40851	3578.8284	139.02315	-197.85277
270	2.69	3567.5811	114.34682	-186.99286	3569.7344	114.75506	-224.9334	3153.7603	1435.9584	-116.47964	3142.2271	1407.322	-107.60876	3142.7566	1409.5028	-145.64293	3172.519	1058.6497	1.2097996	3176.5981	1051.3088	-247.94574	3340.8831	1071.3292	-42.36161	3342.6399	1070.1145	-160.87915				3356.5176	1102.2352	-121.69854	3359.1404	1098.2157	-82.299095	3098.3606	547.28766	15.556867	3034.4956	650.36029	-40.075157	3043.8708	735.8515	-20.464542	3086.417	864.46777	2.2127135	3142.3755	692.66205	43.345436	3180.5999	835.5155	74.243431	3170.176	789.40424	78.677643	3164.2107	759.78979	74.3078	3131.7383	778.77466	77.183281	3081.2725	469.09003	18.66259	3035.6633	464.88516	-43.89529	3064.948	211.86667	-55.588264	3119.2729	101.76672	-21.67314	3039.9204	408.12125	-73.187088	3034.7048	380.5383	-65.810776	3054.9497	382.11646	-99.018227	3194.8027	66.525726	-53.300949	2976.6733	74.611526	-65.070633	3038.3579	120.87627	-57.335274	3013.3921	105.27654	-47.396236	3011.0313	110.47871	-85.593704	3284.6584	508.31943	-274.72681	3175.9573	573.34363	-230.90361	3149.8774	657.29602	-223.06601	3143.593	791.89886	-220.52058	3258.9756	663.11969	-292.19766	3247.8503	809.24707	-306.33627	3261.3762	761.0813	-314.15549	3252.2195	733.97424	-313.22879	3289.9431	735.02185	-305.57413	3331.3687	462.59079	-278.40277	3291.4153	415.89932	-240.17297	3537.7749	294.62225	-249.94972	3492.5181	263.80685	-211.30186	3611.9417	223.5623	-233.31786	3341.7092	369.46912	-181.10184	3365.5354	355.57492	-171.90582	3355.7241	341.24359	-205.97926	3664.7791	281.10562	-190.3092	3590.728	74.56292	-192.71661	3560.8467	142.39484	-197.6306
271	2.7	3550.2649	119.17567	-185.2628	3550.2275	119.17133	-224.03473	3140.8457	1436.9069	-116.32486	3128.9973	1408.8131	-107.5204	3130.0215	1411.0396	-145.69325	3159.1538	1060.2131	1.3799399	3164.2832	1052.1842	-247.98592	3327.4482	1072.8043	-41.947731	3329.791	1070.4728	-160.43771				3343.1611	1102.9203	-121.35139	3345.7793	1099.4033	-81.983604	3092.5645	546.35809	16.723465	3026.1277	648.69324	-37.712685	3034.0017	734.44202	-18.941534	3074.4873	864.30481	3.0070252	3133.9224	693.20428	44.408142	3169.0732	837.05298	74.998924	3157.7402	791.35144	80.299995	3153.7388	761.83563	75.138763	3121.0486	779.3587	77.843613	3076.3689	468.33908	20.039244	3030.4397	463.26108	-42.163696	3062.9014	210.85616	-54.731808	3118.9802	101.51808	-21.422886	3034.252	406.80673	-71.383606	3029.7993	379.21683	-64.257774	3049.5796	380.85742	-97.278954	3194.686	66.502129	-53.248341	2976.4517	73.99279	-64.947105	3037.7844	120.62051	-57.073189	3013.2361	105.02532	-47.27747	3010.7178	110.17325	-85.519424	3258.2322	507.54236	-276.07983	3152.4087	575.28558	-231.89514	3129.0554	659.49164	-224.52666	3127.1897	794.00183	-221.18088	3237.4397	662.58649	-293.17764	3231.4727	809.10016	-306.33618	3243.5291	760.88037	-314.37704	3233.2458	733.78424	-313.72919	3270.9614	733.54993	-305.61661	3303.8955	462.55121	-279.98795	3264.9907	415.60095	-241.24364	3513.4692	298.65665	-250.61826	3469.2419	267.69232	-211.74538	3589.0962	229.28207	-233.82396	3315.7695	369.43253	-182.35455	3339.54	355.61774	-173.76772	3330.2827	342.14575	-207.8015	3640.1333	289.16379	-191.47873	3574.6941	79.8032	-192.16927	3542.2634	145.83957	-198.26469
